<svg width="60" height="60" viewBox="0 0 60 60" fill="none" xmlns="http://www.w3.org/2000/svg">
<path d="M0 10C0 4.47715 4.47715 0 10 0H50C55.5228 0 60 4.47715 60 10V50C60 55.5228 55.5228 60 50 60H10C4.47715 60 0 55.5228 0 50V10Z" fill="#B9FBC0"/>
<path fill-rule="evenodd" clip-rule="evenodd" d="M35.3626 35.2546H30.9573C30.4053 35.2546 29.9573 34.8066 29.9573 34.2546C29.9573 33.7026 30.4053 33.2546 30.9573 33.2546H35.3626C35.9146 33.2546 36.3626 33.7026 36.3626 34.2546C36.3626 34.8066 35.9146 35.2546 35.3626 35.2546ZM28.508 31.0333L25.3453 34.196C25.1506 34.392 24.8946 34.4893 24.6386 34.4893C24.3826 34.4893 24.1266 34.392 23.932 34.196C23.5413 33.8053 23.5413 33.172 23.932 32.7826L26.388 30.3266L23.932 27.8706C23.5413 27.48 23.5413 26.8466 23.932 26.456C24.3226 26.0653 24.9546 26.0653 25.3453 26.456L28.508 29.6186C28.8986 30.0093 28.8986 30.6426 28.508 31.0333ZM35.624 17.3333H24.3773C20.164 17.3333 17.3333 20.2933 17.3333 24.7013V35.2973C17.3333 39.7053 20.164 42.6666 24.3773 42.6666H35.6226C39.836 42.6666 42.6666 39.7053 42.6666 35.2973V24.7013C42.6666 20.2933 39.836 17.3333 35.624 17.3333Z" fill="#091540"/>
</svg>
