<svg width="60" height="60" viewBox="0 0 60 60" fill="none" xmlns="http://www.w3.org/2000/svg">
<path d="M0 10C0 4.47715 4.47715 0 10 0H50C55.5228 0 60 4.47715 60 10V50C60 55.5228 55.5228 60 50 60H10C4.47715 60 0 55.5228 0 50V10Z" fill="#BFD8BD"/>
<path fill-rule="evenodd" clip-rule="evenodd" d="M23.6751 15.75C21.2849 15.75 19.2849 16.6013 17.886 18.1015C16.4926 19.596 15.7507 21.6746 15.7507 24.0392V25.1133H44.2492V24.0392C44.2492 21.6756 43.5117 19.5969 42.12 18.102C40.7227 16.601 38.7226 15.75 36.3264 15.75H23.6751ZM21.4343 20.7012C20.813 20.7012 20.3093 21.2049 20.3093 21.8262C20.3093 22.4475 20.813 22.9512 21.4343 22.9512H21.5175C22.1388 22.9512 22.6425 22.4475 22.6425 21.8262C22.6425 21.2049 22.1388 20.7012 21.5175 20.7012H21.4343ZM25.1626 20.7012C24.5413 20.7012 24.0376 21.2049 24.0376 21.8262C24.0376 22.4475 24.5413 22.9512 25.1626 22.9512H25.2458C25.8671 22.9512 26.3708 22.4475 26.3708 21.8262C26.3708 21.2049 25.8671 20.7012 25.2458 20.7012H25.1626ZM28.8922 20.7012C28.2709 20.7012 27.7672 21.2049 27.7672 21.8262C27.7672 22.4475 28.2709 22.9512 28.8922 22.9512H28.9755C29.5968 22.9512 30.1005 22.4475 30.1005 21.8262C30.1005 21.2049 29.5968 20.7012 28.9755 20.7012H28.8922Z" fill="#091540"/>
<path d="M29.4897 32.25C27.9316 32.25 26.6686 33.513 26.6686 35.0711C26.6686 36.6291 27.9316 37.8921 29.4897 37.8921C31.0477 37.8921 32.3107 36.6291 32.3107 35.0711C32.3107 33.513 31.0477 32.25 29.4897 32.25Z" fill="#091540"/>
<path fill-rule="evenodd" clip-rule="evenodd" d="M15.7507 35.9593V27.3633H44.2492V35.9593C44.2492 38.3229 43.5117 40.4016 42.1198 41.8966C40.7224 43.3977 38.7219 44.2486 36.325 44.2486H23.6751C21.2788 44.2486 19.2784 43.3975 17.8808 41.8966C16.4888 40.4017 15.7507 38.323 15.7507 35.9593ZM24.4186 35.071C24.4186 32.2704 26.689 30 29.4897 30C32.2903 30 34.5607 32.2704 34.5607 35.071C34.5607 36.09 34.2603 37.0387 33.7429 37.8336L35.2519 39.343C35.6913 39.7825 35.6911 40.4947 35.2518 40.9341C34.8123 41.3733 34.1001 41.3731 33.6607 40.9338L32.1292 39.4018C31.3603 39.8715 30.4566 40.1421 29.4897 40.1421C26.689 40.1421 24.4186 37.8717 24.4186 35.071Z" fill="#091540"/>
</svg>
