<svg width="60" height="60" viewBox="0 0 60 60" fill="none" xmlns="http://www.w3.org/2000/svg">
<path d="M0 10C0 4.47715 4.47715 0 10 0H50C55.5228 0 60 4.47715 60 10V50C60 55.5228 55.5228 60 50 60H10C4.47715 60 0 55.5228 0 50V10Z" fill="#8EECF5"/>
<path fill-rule="evenodd" clip-rule="evenodd" d="M41.752 29.78H41.0507V26.7107C41.0507 26.3867 40.7934 26.1267 40.4707 26.1267H36.52C34.164 26.1133 32.22 24.1627 32.22 21.784V17.5987C32.22 17.2733 31.9627 17 31.628 17H24.7547C21.5507 17 18.9507 19.6387 18.9507 22.8627V29.78H18.248C17.696 29.78 17.248 30.228 17.248 30.78C17.248 31.332 17.696 31.78 18.248 31.78H41.752C42.304 31.78 42.752 31.332 42.752 30.78C42.752 30.228 42.304 29.78 41.752 29.78Z" fill="#091540"/>
<path fill-rule="evenodd" clip-rule="evenodd" d="M36.6907 24.2269C37.588 24.2362 38.8347 24.2402 39.8933 24.2362C40.4347 24.2349 40.7107 23.5802 40.3347 23.1869C39.656 22.4749 38.7107 21.4802 37.76 20.4829C36.8067 19.4816 35.8493 18.4749 35.152 17.7442C34.768 17.3389 34.0947 17.6176 34.0947 18.1776V21.6042C34.0947 23.0429 35.2667 24.2269 36.6907 24.2269Z" fill="#091540"/>
<path opacity="0.4" fill-rule="evenodd" clip-rule="evenodd" d="M40.5822 33.3333H19.4183C19.1596 33.3333 18.9503 33.5426 18.9503 33.8013V36.8773C18.9503 40.2573 21.6783 43 25.0249 43H35.2582C38.4636 43 41.0502 40.388 41.0502 37.164V33.8013C41.0502 33.5426 40.8409 33.3333 40.5822 33.3333Z" fill="#091540"/>
</svg>
