<svg width="60" height="60" viewBox="0 0 60 60" fill="none" xmlns="http://www.w3.org/2000/svg">
<path d="M0 10C0 4.47715 4.47715 0 10 0H50C55.5228 0 60 4.47715 60 10V50C60 55.5228 55.5228 60 50 60H10C4.47715 60 0 55.5228 0 50V10Z" fill="#B8B8FF"/>
<path fill-rule="evenodd" clip-rule="evenodd" d="M24.4026 34.6667H20.9306C18.948 34.6667 17.3333 36.28 17.3333 38.264V39.0694C17.3333 41.0534 18.948 42.6667 20.9306 42.6667H24.4026C26.3866 42.6667 28 41.0534 28 39.0694V38.264C28 36.28 26.3866 34.6667 24.4026 34.6667Z" fill="#091540"/>
<path fill-rule="evenodd" clip-rule="evenodd" d="M39.0693 17.3333H35.5973C33.6133 17.3333 32 18.9466 32 20.9306V21.736C32 23.72 33.6133 25.3333 35.5973 25.3333H39.0693C41.0533 25.3333 42.6667 23.72 42.6667 21.736V20.9306C42.6667 18.9466 41.0533 17.3333 39.0693 17.3333Z" fill="#091540"/>
<path fill-rule="evenodd" clip-rule="evenodd" d="M39.0693 29.3333H35.5973C33.6133 29.3333 32 30.9466 32 32.9306V39.0693C32 41.0533 33.6133 42.6666 35.5973 42.6666H39.0693C41.0533 42.6666 42.6667 41.0533 42.6667 39.0693V32.9306C42.6667 30.9466 41.0533 29.3333 39.0693 29.3333Z" fill="#091540"/>
<path fill-rule="evenodd" clip-rule="evenodd" d="M24.4026 17.3333H20.9306C18.948 17.3333 17.3333 18.9466 17.3333 20.9306V27.0693C17.3333 29.0533 18.948 30.6666 20.9306 30.6666H24.4026C26.3866 30.6666 28 29.0533 28 27.0693V20.9306C28 18.9466 26.3866 17.3333 24.4026 17.3333Z" fill="#091540"/>
</svg>
