<svg width="32" height="32" viewBox="0 0 32 32" fill="none" xmlns="http://www.w3.org/2000/svg">
<path d="M22.5529 2.00757C27.1334 2.00757 30 5.23717 30 9.81761V22.1809C30 26.7613 27.1334 29.9925 22.5529 29.9925H9.43187C4.85143 29.9925 2 26.7613 2 22.1809V9.81761C2 5.23717 4.86656 2.00757 9.43187 2.00757H16.3078M9.06677 29.9789L18.6073 19.1345C19.7752 17.8139 19.6389 15.7974 18.32 14.6433L16.591 13.1276C15.2552 11.9446 13.2524 12.0808 12.0846 13.3998L9.96227 15.8111L2.27173 24.5182M13.2056 18.6705L16.4519 21.5295M23.2871 13.0223V12.9618M21.2042 23.5682V23.6287M7.95334 8.76882V8.70831M22.575 8.46652V8.40601" stroke="#091540" stroke-width="2.33333" stroke-linecap="round" stroke-linejoin="round"/>
</svg>
