<svg width="60" height="60" viewBox="0 0 60 60" fill="none" xmlns="http://www.w3.org/2000/svg">
<path d="M0 10C0 4.47715 4.47715 0 10 0H50C55.5228 0 60 4.47715 60 10V50C60 55.5228 55.5228 60 50 60H10C4.47715 60 0 55.5228 0 50V10Z" fill="#FFD8BE"/>
<path fill-rule="evenodd" clip-rule="evenodd" d="M23.9553 21.8534C24.6927 21.8534 25.2887 21.2574 25.2887 20.52V18C25.2887 17.264 24.6927 16.6667 23.9553 16.6667C23.218 16.6667 22.622 17.264 22.622 18V20.52C22.622 21.2574 23.218 21.8534 23.9553 21.8534Z" fill="#091540"/>
<path fill-rule="evenodd" clip-rule="evenodd" d="M21.8498 23.9583C21.8498 23.221 21.2538 22.625 20.5165 22.625H18.0005C17.2645 22.625 16.6672 23.221 16.6672 23.9583C16.6672 24.6957 17.2645 25.2917 18.0005 25.2917H20.5165C21.2538 25.2917 21.8498 24.6957 21.8498 23.9583Z" fill="#091540"/>
<path fill-rule="evenodd" clip-rule="evenodd" d="M36.0478 38.1458C35.3104 38.1458 34.7144 38.7418 34.7144 39.4791V41.9991C34.7144 42.7351 35.3104 43.3325 36.0478 43.3325C36.7851 43.3325 37.3811 42.7351 37.3811 41.9991V39.4791C37.3811 38.7418 36.7851 38.1458 36.0478 38.1458Z" fill="#091540"/>
<path fill-rule="evenodd" clip-rule="evenodd" d="M41.9996 34.7083H39.4836C38.7476 34.7083 38.1502 35.3044 38.1502 36.0416C38.1502 36.7789 38.7476 37.3749 39.4836 37.3749H41.9996C42.7369 37.3749 43.3329 36.7789 43.3329 36.0416C43.3329 35.3044 42.7369 34.7083 41.9996 34.7083Z" fill="#091540"/>
<path fill-rule="evenodd" clip-rule="evenodd" d="M31.6037 36.1275L30.2944 37.4435C28.1584 39.5715 24.6878 39.5728 22.5584 37.4448C20.4264 35.3115 20.4264 31.8381 22.5571 29.7075L23.8691 28.3995C24.3904 27.8781 24.3931 27.0355 23.8731 26.5128C23.3518 25.9901 22.5091 25.9888 21.9864 26.5088L20.6731 27.8195C17.5024 30.9928 17.5024 36.1555 20.6731 39.3301C22.2571 40.9141 24.3384 41.7048 26.4211 41.7048C28.5051 41.7048 30.5904 40.9128 32.1811 39.3275L33.4944 38.0075C34.0144 37.4861 34.0117 36.6421 33.4891 36.1221C32.9664 35.6021 32.1237 35.6061 31.6037 36.1275Z" fill="#091540"/>
<path fill-rule="evenodd" clip-rule="evenodd" d="M41.5517 26.579C41.5531 24.3977 40.7104 22.3524 39.1771 20.8177C36.0104 17.651 30.8504 17.651 27.6704 20.8177L26.3504 22.1377C25.8291 22.659 25.8291 23.5017 26.3504 24.023C26.8704 24.5444 27.7144 24.5444 28.2357 24.023L29.5544 22.7044C31.6904 20.5764 35.1611 20.5724 37.2917 22.703C38.3197 23.7324 38.8864 25.1084 38.8851 26.5777C38.8851 28.0444 38.3184 29.4177 37.2917 30.443L35.9691 31.7644C35.4491 32.283 35.4491 33.1284 35.9691 33.6497C36.2304 33.9097 36.5717 34.0404 36.9131 34.0404C37.2531 34.0404 37.5944 33.9097 37.8557 33.6497L39.1771 32.3284C40.7064 30.8004 41.5504 28.759 41.5517 26.579Z" fill="#091540"/>
</svg>
