<svg width="40" height="41" viewBox="0 0 40 41" fill="none" xmlns="http://www.w3.org/2000/svg">
<path fill-rule="evenodd" clip-rule="evenodd" d="M13.7146 0.0161133C11.4582 0.0161133 9.2943 0.91245 7.69881 2.50794L0 10.2067V13.7307C0 16.2204 1.06944 18.4603 2.77401 20.0161C1.06944 21.5719 0 23.8118 0 26.3015V29.8255L7.69881 37.5243C9.2943 39.1198 11.4582 40.0161 13.7146 40.0161C16.2043 40.0161 18.4442 38.9467 20 37.2421C21.5558 38.9467 23.7957 40.0161 26.2854 40.0161C28.5418 40.0161 30.7057 39.1198 32.3012 37.5243L40 29.8255V26.3015C40 23.8118 38.9306 21.5719 37.226 20.0161C38.9306 18.4603 40 16.2204 40 13.7307V10.2067L32.3012 2.50794C30.7057 0.91245 28.5418 0.0161133 26.2854 0.0161133C23.7957 0.0161133 21.5558 1.08555 20 2.79012C18.4442 1.08555 16.2043 0.0161133 13.7146 0.0161133ZM25.7588 20.0161C25.6629 19.9286 25.5688 19.8387 25.4766 19.7465L20 14.2699L14.5234 19.7465C14.4312 19.8387 14.3371 19.9286 14.2412 20.0161C14.3371 20.1036 14.4312 20.1935 14.5234 20.2857L20 25.7623L25.4766 20.2857C25.5688 20.1935 25.6629 20.1036 25.7588 20.0161ZM22.2222 29.8255V31.5085C22.2222 33.7525 24.0414 35.5717 26.2854 35.5717C27.363 35.5717 28.3965 35.1436 29.1585 34.3816L35.5556 27.9845V26.3015C35.5556 24.0575 33.7364 22.2383 31.4924 22.2383C30.4148 22.2383 29.3813 22.6664 28.6193 23.4284L22.2222 29.8255ZM17.7778 29.8255L11.3807 23.4284C10.6187 22.6664 9.58524 22.2383 8.50762 22.2383C6.26359 22.2383 4.44444 24.0575 4.44444 26.3015V27.9845L10.8415 34.3816C11.6035 35.1436 12.637 35.5717 13.7146 35.5717C15.9586 35.5717 17.7778 33.7525 17.7778 31.5085V29.8255ZM17.7778 8.52373V10.2067L11.3807 16.6038C10.6187 17.3658 9.58524 17.7939 8.50762 17.7939C6.26359 17.7939 4.44444 15.9747 4.44444 13.7307V12.0477L10.8415 5.65063C11.6035 4.88864 12.637 4.46056 13.7146 4.46056C15.9586 4.46056 17.7778 6.2797 17.7778 8.52373ZM28.6193 16.6038L22.2222 10.2067V8.52373C22.2222 6.2797 24.0414 4.46056 26.2854 4.46056C27.363 4.46056 28.3965 4.88864 29.1585 5.65063L35.5556 12.0477V13.7307C35.5556 15.9747 33.7364 17.7939 31.4924 17.7939C30.4148 17.7939 29.3813 17.3658 28.6193 16.6038Z" fill="#C7231A"/>
</svg>
