<svg width="60" height="60" viewBox="0 0 60 60" fill="none" xmlns="http://www.w3.org/2000/svg">
<path d="M0 10C0 4.47715 4.47715 0 10 0H50C55.5228 0 60 4.47715 60 10V50C60 55.5228 55.5228 60 50 60H10C4.47715 60 0 55.5228 0 50V10Z" fill="#90DBF4"/>
<path fill-rule="evenodd" clip-rule="evenodd" d="M36.3578 23.6483C37.2551 23.6577 38.5018 23.6617 39.5591 23.6577C40.1004 23.6563 40.3751 23.003 40.0004 22.6083C39.3218 21.8963 38.3764 20.903 37.4271 19.9057C36.4738 18.9043 35.5164 17.899 34.8204 17.1683C34.4351 16.7643 33.7631 17.0417 33.7631 17.6017V21.027C33.7631 22.4643 34.9351 23.6483 36.3578 23.6483Z" fill="#091540"/>
<path fill-rule="evenodd" clip-rule="evenodd" d="M29.5576 33.5072H23.2523C22.6989 33.5072 22.2523 33.0592 22.2523 32.5072C22.2523 31.9552 22.6989 31.5072 23.2523 31.5072H29.5576C30.1096 31.5072 30.5576 31.9552 30.5576 32.5072C30.5576 33.0592 30.1096 33.5072 29.5576 33.5072ZM23.2509 26.0032H26.5429C27.0949 26.0032 27.5429 26.4512 27.5429 27.0032C27.5429 27.5552 27.0949 28.0032 26.5429 28.0032H23.2509C22.6976 28.0032 22.2509 27.5552 22.2509 27.0032C22.2509 26.4512 22.6976 26.0032 23.2509 26.0032ZM33.9936 31.8219C35.1136 29.8766 37.6083 29.2059 39.5589 30.3286L40.5989 30.9299C40.6416 30.9539 40.6749 30.9872 40.7149 31.0139V26.1312C40.7149 25.8072 40.4576 25.5472 40.1363 25.5472H36.1869C33.8323 25.5338 31.8896 23.5845 31.8896 21.2072V17.0218C31.8896 16.6978 31.6323 16.4245 31.2976 16.4245H24.4269C21.2243 16.4245 18.6243 19.0618 18.6243 22.2845V36.2926C18.6243 39.6712 21.3523 42.4139 24.6976 42.4139H30.4763C30.4256 42.2619 30.3656 42.1139 30.3336 41.9552L30.1549 41.0632C29.9096 39.8206 30.1216 38.5312 30.7536 37.4312L33.9936 31.8219Z" fill="#091540"/>
<path fill-rule="evenodd" clip-rule="evenodd" d="M39.3221 34.9747L36.0848 40.5813C35.8954 40.9093 35.5928 41.1573 35.2368 41.28L34.3368 41.5547L34.1581 40.6587C34.0848 40.288 34.1488 39.9013 34.3381 39.5733L37.5754 33.9653C37.6514 33.8347 37.7901 33.7613 37.9301 33.7613C37.9994 33.7613 38.0701 33.7787 38.1328 33.816L39.1728 34.416C39.3674 34.5293 39.4341 34.78 39.3221 34.9747ZM40.1728 32.684L39.1314 32.084C37.9861 31.4213 36.5088 31.816 35.8448 32.9653L32.6048 38.5747C32.1741 39.324 32.0288 40.2027 32.1968 41.0493L32.3754 41.944C32.4874 42.516 32.8434 43.0107 33.3488 43.304C33.6594 43.4827 34.0101 43.5747 34.3608 43.5747C34.5794 43.5747 34.7981 43.5387 35.0101 43.468L35.8781 43.1733C36.6954 42.8947 37.3848 42.3307 37.8168 41.5813L41.0554 35.9733C41.7168 34.8227 41.3208 33.348 40.1728 32.684Z" fill="#091540"/>
</svg>
