<svg width="60" height="60" viewBox="0 0 60 60" fill="none" xmlns="http://www.w3.org/2000/svg">
<path d="M0 10C0 4.47715 4.47715 0 10 0H50C55.5228 0 60 4.47715 60 10V50C60 55.5228 55.5228 60 50 60H10C4.47715 60 0 55.5228 0 50V10Z" fill="#98F5E1"/>
<path fill-rule="evenodd" clip-rule="evenodd" d="M21.5988 18.3424C19.2121 18.3424 17.2654 20.2891 17.2654 22.6757V24.9152C17.2654 25.0627 17.3847 25.1821 17.5322 25.1818C18.6977 25.1794 23.3868 25.1699 25.6663 25.1691C25.8136 25.1691 25.9321 25.0497 25.9321 24.9024V22.6757C25.9321 20.2891 23.9988 18.3424 21.5988 18.3424Z" fill="#091540"/>
<path fill-rule="evenodd" clip-rule="evenodd" d="M17.5322 27.1565C17.3847 27.1562 17.2654 27.2757 17.2654 27.4232V31.5813C17.2654 31.6409 17.3258 31.6892 17.3854 31.6892H25.6654C25.8127 31.6892 25.9321 31.5699 25.9321 31.4225V27.4359C25.9321 27.2887 25.8136 27.1693 25.6663 27.1692C23.3868 27.1685 18.6977 27.1589 17.5322 27.1565Z" fill="#091540"/>
<path fill-rule="evenodd" clip-rule="evenodd" d="M21.5988 36.2093C22.2654 36.2093 22.7988 36.756 22.7988 37.4093C22.7988 38.076 22.2654 38.6093 21.5988 38.6093C20.9454 38.6093 20.3988 38.076 20.3988 37.4093C20.3988 36.756 20.9454 36.2093 21.5988 36.2093ZM17.5322 33.6765C17.3847 33.6762 17.2654 33.7957 17.2654 33.9432V37.3426C17.2654 39.7426 19.2121 41.676 21.5988 41.676C23.9988 41.676 25.9321 39.7426 25.9321 37.3426V33.956C25.9321 33.8088 25.8136 33.6893 25.6663 33.6893C23.3868 33.6885 18.6977 33.679 17.5322 33.6765Z" fill="#091540"/>
<path fill-rule="evenodd" clip-rule="evenodd" d="M38.6368 23.8594C37.4235 20.5527 33.5568 19.9661 31.4102 22.1127L28.06 25.4373C27.9598 25.5368 27.9031 25.672 27.9024 25.8133L27.8768 31.0328L27.8635 32.6861V32.6994L27.84 37.2916C27.8388 37.5297 28.1267 37.6498 28.2952 37.4816L37.6502 28.1394C38.7702 27.0194 39.1835 25.3527 38.6368 23.8594Z" fill="#091540"/>
<path fill-rule="evenodd" clip-rule="evenodd" d="M38.8973 33.0153H35.8558C35.7158 33.0153 35.5814 33.0704 35.4817 33.1685L27.296 41.2252C27.126 41.3927 27.2445 41.682 27.483 41.682H39.0453C40.6266 41.682 42.1066 40.7967 42.7706 39.362C44.2506 36.158 41.9346 33.0153 38.8973 33.0153Z" fill="#091540"/>
</svg>
