<svg width="60" height="60" viewBox="0 0 60 60" fill="none" xmlns="http://www.w3.org/2000/svg">
<path d="M0 10C0 4.47715 4.47715 0 10 0H50C55.5228 0 60 4.47715 60 10V50C60 55.5228 55.5228 60 50 60H10C4.47715 60 0 55.5228 0 50V10Z" fill="#FFCFD2"/>
<path fill-rule="evenodd" clip-rule="evenodd" d="M35.5323 28.3213L31.6123 32.2413C31.4256 32.4413 31.1589 32.5347 30.9056 32.5347C30.6523 32.5347 30.3989 32.4413 30.1989 32.2413C29.8123 31.8547 29.8123 31.2147 30.1989 30.828L34.1189 26.908C34.5189 26.5213 35.1456 26.5213 35.5323 26.908C35.9323 27.2947 35.9323 27.9347 35.5323 28.3213ZM30.9189 20.6947C24.9189 20.6947 20.0389 25.5747 20.0389 31.5747C20.0389 31.7111 20.0424 31.8476 20.0476 31.9823C20.0558 32.1948 20.2323 32.3613 20.4451 32.3613H24.9189C26.3989 32.3613 27.5856 33.548 27.5856 35.028C27.5856 35.0941 27.5828 35.1593 27.5776 35.2236C27.556 35.4897 27.7464 35.748 28.0135 35.748H28.2389C29.7056 35.748 30.9056 36.9347 30.9056 38.4147C30.9056 38.6393 30.8761 38.8597 30.822 39.0713C30.7633 39.3005 30.9223 39.548 31.1589 39.548C32.4029 39.548 33.4508 40.4055 33.7384 41.5657C33.7997 41.8129 34.0443 41.9911 34.2865 41.9123C38.6431 40.4947 41.7989 36.4012 41.7989 31.5747C41.7989 25.5747 36.9189 20.6947 30.9189 20.6947Z" fill="#091540"/>
<path fill-rule="evenodd" clip-rule="evenodd" d="M28.1223 18.7858H33.733C34.285 18.7858 34.733 18.3378 34.733 17.7858C34.733 17.2338 34.285 16.7858 33.733 16.7858H28.1223C27.5703 16.7858 27.1223 17.2338 27.1223 17.7858C27.1223 18.3378 27.5703 18.7858 28.1223 18.7858Z" fill="#091540"/>
<path fill-rule="evenodd" clip-rule="evenodd" d="M29.2332 38.4128C29.2332 37.8608 28.7852 37.4128 28.233 37.4128H22.5118C21.9598 37.4128 21.5118 37.8608 21.5118 38.4128C21.5118 38.9648 21.9598 39.4128 22.5118 39.4128H28.233C28.7852 39.4128 29.2332 38.9648 29.2332 38.4128Z" fill="#091540"/>
<path fill-rule="evenodd" clip-rule="evenodd" d="M31.1522 41.2141H25.431C24.879 41.2141 24.431 41.6621 24.431 42.2141C24.431 42.7661 24.879 43.2141 25.431 43.2141H31.1522C31.7042 43.2141 32.1522 42.7661 32.1522 42.2141C32.1522 41.6621 31.7042 41.2141 31.1522 41.2141Z" fill="#091540"/>
<path fill-rule="evenodd" clip-rule="evenodd" d="M25.9238 35.026C25.9238 34.474 25.4758 34.026 24.9238 34.026H19.2012C18.6492 34.026 18.2012 34.474 18.2012 35.026C18.2012 35.578 18.6492 36.026 19.2012 36.026H24.9238C25.4758 36.026 25.9238 35.578 25.9238 35.026Z" fill="#091540"/>
</svg>
