<svg width="60" height="60" viewBox="0 0 60 60" fill="none" xmlns="http://www.w3.org/2000/svg">
<path d="M0 10C0 4.47715 4.47715 0 10 0H50C55.5228 0 60 4.47715 60 10V50C60 55.5228 55.5228 60 50 60H10C4.47715 60 0 55.5228 0 50V10Z" fill="#A9D6E5"/>
<path fill-rule="evenodd" clip-rule="evenodd" d="M19.3202 19.1965C20.6329 17.7882 22.5022 17 24.7095 17H35.9558C38.1682 17 40.0384 17.7878 41.3505 19.1969C42.655 20.5979 43.3333 22.5319 43.3333 24.7018V35.2981C43.3333 37.4681 42.655 39.4021 41.3502 40.8032C40.038 42.2123 38.1674 43 35.9545 43H24.7095C22.497 43 20.6272 42.2121 19.3154 40.8031C18.0112 39.402 17.3333 37.468 17.3333 35.2981V24.7018C17.3333 22.5307 18.0149 20.5969 19.3202 19.1965ZM20.7832 20.5602C19.8803 21.5289 19.3333 22.946 19.3333 24.7018V35.2981C19.3333 37.0552 19.8781 38.4721 20.7793 39.4403C21.673 40.4004 22.9912 41 24.7095 41H35.9545C37.6736 41 38.9925 40.4003 39.8866 39.4401C40.7882 38.472 41.3333 37.0551 41.3333 35.2981V24.7018C41.3333 22.9449 40.7882 21.528 39.8868 20.5598C38.9928 19.5997 37.6741 19 35.9558 19H24.7095C22.9977 19 21.6789 19.5992 20.7832 20.5602Z" fill="#091540"/>
<path fill-rule="evenodd" clip-rule="evenodd" d="M23.6849 24.1875C23.6849 23.6352 24.1326 23.1875 24.6849 23.1875H27.3288C27.881 23.1875 28.3288 23.6352 28.3288 24.1875C28.3288 24.7398 27.881 25.1875 27.3288 25.1875H25.6849V34.8191H27.3288C27.881 34.8191 28.3288 35.2668 28.3288 35.8191C28.3288 36.3713 27.881 36.8191 27.3288 36.8191H24.6849C24.1326 36.8191 23.6849 36.3713 23.6849 35.8191V24.1875Z" fill="#091540"/>
<path fill-rule="evenodd" clip-rule="evenodd" d="M32.3386 24.1875C32.3386 23.6352 32.7863 23.1875 33.3386 23.1875H35.9824C36.5347 23.1875 36.9824 23.6352 36.9824 24.1875V35.8191C36.9824 36.3713 36.5347 36.8191 35.9824 36.8191H33.3386C32.7863 36.8191 32.3386 36.3713 32.3386 35.8191C32.3386 35.2668 32.7863 34.8191 33.3386 34.8191H34.9824V25.1875H33.3386C32.7863 25.1875 32.3386 24.7398 32.3386 24.1875Z" fill="#091540"/>
</svg>
