<svg width="60" height="60" viewBox="0 0 60 60" fill="none" xmlns="http://www.w3.org/2000/svg">
<path d="M0 10C0 4.47715 4.47715 0 10 0H50C55.5228 0 60 4.47715 60 10V50C60 55.5228 55.5228 60 50 60H10C4.47715 60 0 55.5228 0 50V10Z" fill="#CFBAF0"/>
<path fill-rule="evenodd" clip-rule="evenodd" d="M41.5851 28.6238C40.8664 27.6851 39.7757 27.1464 38.5931 27.1464H21.4064C20.2237 27.1464 19.133 27.6851 18.4144 28.6224C17.6957 29.5624 17.4597 30.7558 17.7677 31.8958L19.9677 40.0451C20.4104 41.6878 21.9064 42.8331 23.6064 42.8331H36.3917C38.0904 42.8331 39.5864 41.6878 40.0304 40.0464L42.2317 31.8971C42.5411 30.7571 42.3037 29.5624 41.5851 28.6238Z" fill="#091540"/>
<path fill-rule="evenodd" clip-rule="evenodd" d="M25.2485 19.1667H34.7484C35.3004 19.1667 35.7484 18.7187 35.7484 18.1667C35.7484 17.6147 35.3004 17.1667 34.7484 17.1667H25.2485C24.6965 17.1667 24.2485 17.6147 24.2485 18.1667C24.2485 18.7187 24.6965 19.1667 25.2485 19.1667Z" fill="#091540"/>
<path fill-rule="evenodd" clip-rule="evenodd" d="M21.5764 23.6705H38.4217C38.9737 23.6705 39.4217 23.2225 39.4217 22.6705C39.4217 22.1185 38.9737 21.6705 38.4217 21.6705H21.5764C21.0244 21.6705 20.5764 22.1185 20.5764 22.6705C20.5764 23.2225 21.0244 23.6705 21.5764 23.6705Z" fill="#091540"/>
</svg>
