<svg width="60" height="60" viewBox="0 0 60 60" fill="none" xmlns="http://www.w3.org/2000/svg">
<path d="M0 10C0 4.47715 4.47715 0 10 0H50C55.5228 0 60 4.47715 60 10V50C60 55.5228 55.5228 60 50 60H10C4.47715 60 0 55.5228 0 50V10Z" fill="#A3C4F3"/>
<path fill-rule="evenodd" clip-rule="evenodd" d="M20.1294 20.321C21.3194 19.0444 23.0115 18.3333 25.0009 18.3333H27.6414C28.1937 18.3333 28.6414 18.7811 28.6414 19.3333C28.6414 19.8856 28.1937 20.3333 27.6414 20.3333H25.0009C23.507 20.3333 22.3654 20.8554 21.5923 21.6847C20.8121 22.5217 20.3333 23.7526 20.3333 25.2901V34.7099C20.3333 36.2487 20.8102 37.4793 21.5888 38.3159C22.3599 39.1441 23.501 39.6667 25.0009 39.6667H34.9968C36.4973 39.6667 37.639 39.144 38.4105 38.3156C39.1896 37.4792 39.6666 36.2485 39.6666 34.7099V32.6465C39.6666 32.0943 40.1144 31.6465 40.6666 31.6465C41.2189 31.6465 41.6666 32.0943 41.6666 32.6465V34.7099C41.6666 36.6616 41.0562 38.4093 39.8741 39.6787C38.6845 40.9561 36.9912 41.6667 34.9968 41.6667H25.0009C23.0068 41.6667 21.3141 40.956 20.1249 39.6785C18.9433 38.4092 18.3333 36.6615 18.3333 34.7099V25.2901C18.3333 23.3372 18.9467 21.5897 20.1294 20.321Z" fill="#091540"/>
<path fill-rule="evenodd" clip-rule="evenodd" d="M35.3945 20.3333C34.8421 20.3333 34.3945 19.8856 34.3945 19.3333C34.3945 18.7811 34.8421 18.3333 35.3945 18.3333H40.6657C41.218 18.3333 41.6657 18.7811 41.6657 19.3333V24.6046C41.6657 25.1569 41.218 25.6046 40.6657 25.6046C40.1134 25.6046 39.6657 25.1569 39.6657 24.6046V21.7476L31.5757 29.8376H34.4326C34.9849 29.8376 35.4326 30.2853 35.4326 30.8376C35.4326 31.3899 34.9849 31.8376 34.4326 31.8376H29.1614C28.8962 31.8376 28.6418 31.7323 28.4544 31.5447C28.2668 31.3572 28.1614 31.1028 28.1614 30.8376V25.5663C28.1614 25.014 28.6092 24.5663 29.1614 24.5663C29.7137 24.5663 30.1614 25.014 30.1614 25.5663V28.4233L38.2514 20.3333H35.3945Z" fill="#091540"/>
</svg>
